# xmcd
#
# Track frame offsets:
# 150
# 19398
# 45072
# 75271
# 99146
# 119832
# 141981
# 164617
# 183786
# 209231
#
# Disc length: 3180 seconds
#
# Revision: 0
# Processed by: cddbd v1.5.2PL0 Copyright (c) Steve Scherf et al.
# Submitted via: Audion 3.0.2 (http://www.panic.com/audion/)
#
DISCID=820c6a0a
DTITLE=Stan Getz - The girl from Ipanema - The boss nova years
DYEAR=1900
DGENRE=
TTITLE0=Corcovado
TTITLE1=Menina moca
TTITLE2=Once again
TTITLE3=Winter moon
TTITLE4=Do what you do, do
TTITLE5=Samba da sahra
TTITLE6=Maracatu-too
TTITLE7=Eu e voce
TTITLE8=Corcovado
TTITLE9=The girl from Ipanema
EXTD=
EXTT0=
EXTT1=
EXTT2=
EXTT3=
EXTT4=
EXTT5=
EXTT6=
EXTT7=
EXTT8=
EXTT9=
PLAYORDER=
